<mxfile host="65bd71144e">
    <diagram name="Page-1" id="NWW-BIMjJpVpC3D-1HA6">
        <mxGraphModel dx="1086" dy="751" grid="1" gridSize="10" guides="1" tooltips="1" connect="1" arrows="1" fold="1" page="1" pageScale="1" pageWidth="850" pageHeight="1100" background="#ffffff" math="0" shadow="0">
            <root>
                <mxCell id="G7kxr5tPh6etNtG-livR-0"/>
                <mxCell id="G7kxr5tPh6etNtG-livR-1" parent="G7kxr5tPh6etNtG-livR-0"/>
                <mxCell id="G7kxr5tPh6etNtG-livR-2" value="http://ics2o.mths.ca" style="swimlane;whiteSpace=wrap;html=1;strokeColor=#000000;strokeWidth=1;gradientColor=none;perimeterSpacing=0;glass=0;labelBackgroundColor=none;labelBorderColor=none;" vertex="1" parent="G7kxr5tPh6etNtG-livR-1">
                    <mxGeometry x="40" y="40" width="790" height="610" as="geometry"/>
                </mxCell>
                <mxCell id="G7kxr5tPh6etNtG-livR-3" value="" style="whiteSpace=wrap;html=1;glass=0;labelBackgroundColor=none;labelBorderColor=none;fontSize=22;fillColor=#FFB366;strokeColor=#36393d;" vertex="1" parent="G7kxr5tPh6etNtG-livR-2">
                    <mxGeometry y="20" width="760" height="590" as="geometry"/>
                </mxCell>
                <mxCell id="G7kxr5tPh6etNtG-livR-4" value="" style="whiteSpace=wrap;html=1;fontSize=22;fillColor=#fa6800;strokeColor=#C73500;fontColor=#000000;" vertex="1" parent="G7kxr5tPh6etNtG-livR-2">
                    <mxGeometry y="20" width="760" height="50" as="geometry"/>
                </mxCell>
                <mxCell id="G7kxr5tPh6etNtG-livR-5" value="" style="whiteSpace=wrap;html=1;glass=0;labelBackgroundColor=none;labelBorderColor=none;fontSize=22;fontColor=#000000;fillColor=#6D6F6B;gradientColor=none;" vertex="1" parent="G7kxr5tPh6etNtG-livR-2">
                    <mxGeometry x="20" y="169.5" width="150" height="25" as="geometry"/>
                </mxCell>
                <mxCell id="G7kxr5tPh6etNtG-livR-6" value="&lt;span style=&quot;font-size: 22px;&quot;&gt;Enter in a number and this program will add every natural number&lt;br style=&quot;font-size: 22px;&quot;&gt;&amp;nbsp;from 1 to that number, giving you the sum.&lt;/span&gt;" style="text;html=1;align=left;verticalAlign=middle;resizable=0;points=[];autosize=1;fontSize=22;fontColor=#000000;" vertex="1" parent="G7kxr5tPh6etNtG-livR-2">
                    <mxGeometry x="20" y="69.5" width="660" height="70" as="geometry"/>
                </mxCell>
                <mxCell id="G7kxr5tPh6etNtG-livR-7" value="&lt;span style=&quot;font-size: 17px;&quot;&gt;Value of 'n'&lt;/span&gt;" style="text;align=center;html=1;verticalAlign=middle;whiteSpace=wrap;rounded=0;fontColor=#000000;" vertex="1" parent="G7kxr5tPh6etNtG-livR-2">
                    <mxGeometry x="20" y="139.5" width="110" height="30" as="geometry"/>
                </mxCell>
                <mxCell id="G7kxr5tPh6etNtG-livR-8" value="Calculate" style="whiteSpace=wrap;html=1;fillColor=#999999;" vertex="1" parent="G7kxr5tPh6etNtG-livR-2">
                    <mxGeometry x="30" y="212" width="120" height="30" as="geometry"/>
                </mxCell>
                <mxCell id="G7kxr5tPh6etNtG-livR-9" value="You have not entered in data yet." style="text;strokeColor=none;align=left;fillColor=none;html=1;verticalAlign=middle;whiteSpace=wrap;rounded=0;fontSize=18;fontColor=#000000;" vertex="1" parent="G7kxr5tPh6etNtG-livR-2">
                    <mxGeometry x="10" y="261" width="530" height="30" as="geometry"/>
                </mxCell>
                <mxCell id="G7kxr5tPh6etNtG-livR-10" value="Sum Of n Natural Numbers Calculator" style="text;html=1;align=center;verticalAlign=middle;resizable=0;points=[];autosize=1;fontSize=30;fontColor=#000000;" vertex="1" parent="G7kxr5tPh6etNtG-livR-2">
                    <mxGeometry x="120" y="20" width="530" height="50" as="geometry"/>
                </mxCell>
            </root>
        </mxGraphModel>
    </diagram>
    <diagram name="Page-2" id="MrLV6UkwA7dn7yu7wt2J">
        <mxGraphModel dx="1086" dy="751" grid="1" gridSize="10" guides="1" tooltips="1" connect="1" arrows="1" fold="1" page="1" pageScale="1" pageWidth="850" pageHeight="1100" background="#ffffff" math="0" shadow="0">
            <root>
                <mxCell id="4udC15ZhO5BKBke9GDWl-0"/>
                <mxCell id="4udC15ZhO5BKBke9GDWl-1" parent="4udC15ZhO5BKBke9GDWl-0"/>
                <mxCell id="4udC15ZhO5BKBke9GDWl-2" value="http://ics2o.mths.ca" style="swimlane;whiteSpace=wrap;html=1;strokeColor=#000000;strokeWidth=1;gradientColor=none;perimeterSpacing=0;glass=0;labelBackgroundColor=none;labelBorderColor=none;" vertex="1" parent="4udC15ZhO5BKBke9GDWl-1">
                    <mxGeometry x="40" y="40" width="790" height="610" as="geometry"/>
                </mxCell>
                <mxCell id="4udC15ZhO5BKBke9GDWl-3" value="" style="whiteSpace=wrap;html=1;glass=0;labelBackgroundColor=none;labelBorderColor=none;fontSize=22;fillColor=#FFB366;strokeColor=#36393d;" vertex="1" parent="4udC15ZhO5BKBke9GDWl-2">
                    <mxGeometry y="20" width="760" height="590" as="geometry"/>
                </mxCell>
                <mxCell id="4udC15ZhO5BKBke9GDWl-4" value="" style="whiteSpace=wrap;html=1;fontSize=22;fillColor=#fa6800;strokeColor=#C73500;fontColor=#000000;" vertex="1" parent="4udC15ZhO5BKBke9GDWl-2">
                    <mxGeometry y="20" width="760" height="50" as="geometry"/>
                </mxCell>
                <mxCell id="4udC15ZhO5BKBke9GDWl-5" value="5" style="whiteSpace=wrap;html=1;glass=0;labelBackgroundColor=none;labelBorderColor=none;fontSize=22;fontColor=#000000;fillColor=#6D6F6B;gradientColor=none;" vertex="1" parent="4udC15ZhO5BKBke9GDWl-2">
                    <mxGeometry x="20" y="169.5" width="150" height="25" as="geometry"/>
                </mxCell>
                <mxCell id="4udC15ZhO5BKBke9GDWl-6" value="&lt;span style=&quot;font-size: 22px;&quot;&gt;Enter in a number and this program will add every natural number&lt;br style=&quot;font-size: 22px;&quot;&gt;&amp;nbsp;from 1 to that number, giving you the sum.&lt;/span&gt;" style="text;html=1;align=left;verticalAlign=middle;resizable=0;points=[];autosize=1;fontSize=22;fontColor=#000000;" vertex="1" parent="4udC15ZhO5BKBke9GDWl-2">
                    <mxGeometry x="20" y="69.5" width="660" height="70" as="geometry"/>
                </mxCell>
                <mxCell id="4udC15ZhO5BKBke9GDWl-7" value="&lt;span style=&quot;font-size: 17px;&quot;&gt;Value of 'n'&lt;/span&gt;" style="text;align=center;html=1;verticalAlign=middle;whiteSpace=wrap;rounded=0;fontColor=#000000;" vertex="1" parent="4udC15ZhO5BKBke9GDWl-2">
                    <mxGeometry x="20" y="139.5" width="110" height="30" as="geometry"/>
                </mxCell>
                <mxCell id="4udC15ZhO5BKBke9GDWl-8" value="Calculate" style="whiteSpace=wrap;html=1;fillColor=#999999;" vertex="1" parent="4udC15ZhO5BKBke9GDWl-2">
                    <mxGeometry x="30" y="212" width="120" height="30" as="geometry"/>
                </mxCell>
                <mxCell id="4udC15ZhO5BKBke9GDWl-9" value="The sum of all the numbers from 1 to 5 is: 15" style="text;strokeColor=none;align=left;fillColor=none;html=1;verticalAlign=middle;whiteSpace=wrap;rounded=0;fontSize=18;fontColor=#000000;" vertex="1" parent="4udC15ZhO5BKBke9GDWl-2">
                    <mxGeometry x="10" y="261" width="530" height="30" as="geometry"/>
                </mxCell>
                <mxCell id="4udC15ZhO5BKBke9GDWl-10" value="Sum Of n Natural Numbers Calculator" style="text;html=1;align=center;verticalAlign=middle;resizable=0;points=[];autosize=1;fontSize=30;fontColor=#000000;" vertex="1" parent="4udC15ZhO5BKBke9GDWl-2">
                    <mxGeometry x="120" y="20" width="530" height="50" as="geometry"/>
                </mxCell>
            </root>
        </mxGraphModel>
    </diagram>
</mxfile>